<svg width="93" height="80" viewBox="0 0 93 80" fill="none" xmlns="http://www.w3.org/2000/svg">
<circle cx="46.6665" cy="42" r="22" fill="white" fill-opacity="0.23"/>
<g filter="url(#filter0_d_386_865)">
<circle cx="46.6665" cy="42" r="22" fill="url(#paint0_linear_386_865)"/>
<circle cx="46.6665" cy="42" r="21.5" stroke="#121212" stroke-opacity="0.12"/>
</g>
<path d="M55.4165 42C55.417 42.2122 55.3626 42.421 55.2586 42.6059C55.1545 42.7909 55.0044 42.9457 54.8228 43.0555L43.5665 49.9414C43.3767 50.0576 43.1594 50.1211 42.9369 50.1252C42.7144 50.1293 42.4948 50.074 42.3009 49.9649C42.1088 49.8575 41.9488 49.7008 41.8373 49.5111C41.7258 49.3213 41.6668 49.1053 41.6665 48.8852V35.1149C41.6668 34.8948 41.7258 34.6787 41.8373 34.489C41.9488 34.2992 42.1088 34.1426 42.3009 34.0352C42.4948 33.9261 42.7144 33.8707 42.9369 33.8748C43.1594 33.879 43.3767 33.9424 43.5665 34.0586L54.8228 40.9446C55.0044 41.0543 55.1545 41.2092 55.2586 41.3941C55.3626 41.5791 55.417 41.7878 55.4165 42Z" fill="#3C3C3C"/>
<defs>
<filter id="filter0_d_386_865" x="0.666504" y="0" width="92" height="92" filterUnits="userSpaceOnUse" color-interpolation-filters="sRGB">
<feFlood flood-opacity="0" result="BackgroundImageFix"/>
<feColorMatrix in="SourceAlpha" type="matrix" values="0 0 0 0 0 0 0 0 0 0 0 0 0 0 0 0 0 0 127 0" result="hardAlpha"/>
<feOffset dy="4"/>
<feGaussianBlur stdDeviation="12"/>
<feComposite in2="hardAlpha" operator="out"/>
<feColorMatrix type="matrix" values="0 0 0 0 0.329412 0 0 0 0 0.796078 0 0 0 0 0.760784 0 0 0 0.44 0"/>
<feBlend mode="normal" in2="BackgroundImageFix" result="effect1_dropShadow_386_865"/>
<feBlend mode="normal" in="SourceGraphic" in2="effect1_dropShadow_386_865" result="shape"/>
</filter>
<linearGradient id="paint0_linear_386_865" x1="24.6665" y1="42" x2="68.6665" y2="42" gradientUnits="userSpaceOnUse">
<stop stop-color="#0151FE"/>
<stop offset="1" stop-color="#A6E77D"/>
</linearGradient>
</defs>
</svg>
