<svg width="1200" height="464" viewBox="0 0 1200 464" fill="none" xmlns="http://www.w3.org/2000/svg">
<rect width="463" height="1200" transform="matrix(0 -1 1 0 0 463)" fill="#F8F8F8"/>
<path d="M0 463L1200 463" stroke="#051113" stroke-opacity="0.04"/>
<path d="M0 277.8L1200 277.8" stroke="#051113" stroke-opacity="0.01"/>
<path d="M0 185.2L1200 185.2" stroke="#051113" stroke-opacity="0.04"/>
<path d="M0 92.6L1200 92.6" stroke="#051113" stroke-opacity="0.04"/>
<path d="M0 0L1200 5.24537e-05" stroke="#051113" stroke-opacity="0.04"/>
<path d="M0 0L-2.02384e-05 463" stroke="#051113" stroke-opacity="0.04"/>
<path d="M100 0L100 463" stroke="#051113" stroke-opacity="0.04"/>
<path d="M200 0L200 186" stroke="#051113" stroke-opacity="0.04"/>
<path d="M300 0L300 186" stroke="#051113" stroke-opacity="0.04"/>
<path d="M400 0L400 186" stroke="#051113" stroke-opacity="0.04"/>
<path d="M500 0L500 186" stroke="#051113" stroke-opacity="0.04"/>
<path d="M600 0L600 186" stroke="#051113" stroke-opacity="0.04"/>
<path d="M700 0L700 186" stroke="#051113" stroke-opacity="0.04"/>
<path d="M800 0L800 186" stroke="#051113" stroke-opacity="0.04"/>
<path d="M900 0L900 186" stroke="#051113" stroke-opacity="0.04"/>
<path d="M1000 0L1000 186" stroke="#051113" stroke-opacity="0.04"/>
<path d="M1100 0L1100 463" stroke="#051113" stroke-opacity="0.04"/>
<path d="M1200 0L1200 463" stroke="#051113" stroke-opacity="0.04"/>
</svg>
