<svg width="1313" height="234" viewBox="0 0 1313 234" fill="none" xmlns="http://www.w3.org/2000/svg">
<path d="M103.21 2.87314C106.71 0.987266 110.622 0 114.597 0H656.5H1198.4C1202.38 0 1206.29 0.987266 1209.79 2.87314L1300.39 51.7019C1308.16 55.8892 1313 64.0029 1313 72.8287V117V161.171C1313 169.997 1308.16 178.111 1300.39 182.298L1209.79 231.127C1206.29 233.013 1202.38 234 1198.4 234H656.5H114.597C110.622 234 106.71 233.013 103.21 231.127L12.6134 182.298C4.84412 178.111 0 169.997 0 161.171V117V72.8287C0 64.0029 4.84411 55.8892 12.6134 51.7018L103.21 2.87314Z" fill="url(#paint0_linear_241_1055)"/>
<defs>
<linearGradient id="paint0_linear_241_1055" x1="0" y1="117" x2="1293" y2="117" gradientUnits="userSpaceOnUse">
<stop stop-color="#0151FE" stop-opacity="0.1"/>
<stop offset="1" stop-color="#A6E77D" stop-opacity="0.1"/>
</linearGradient>
</defs>
</svg>
