<svg width="105" height="104" viewBox="0 0 105 104" fill="none" xmlns="http://www.w3.org/2000/svg">
<g filter="url(#filter0_d_156_647)">
<rect x="24.75" y="24" width="56" height="56" rx="4" fill="#0151FE" fill-opacity="0.12" shape-rendering="crispEdges"/>
<path d="M45.617 46.8667C45.7503 47 45.9059 47.0667 46.0837 47.0667C46.2614 47.0667 46.417 47 46.5503 46.8667L48.2837 45.1334C48.417 45 48.4837 44.8445 48.4837 44.6667C48.4837 44.4889 48.417 44.3334 48.2837 44.2L46.5503 42.4667C46.417 42.3334 46.2614 42.2667 46.0837 42.2667C45.9059 42.2667 45.7503 42.3334 45.617 42.4667L43.8837 44.2C43.7503 44.3334 43.6837 44.4889 43.6837 44.6667C43.6837 44.8445 43.7503 45 43.8837 45.1334L45.617 46.8667ZM42.0837 54.6667C41.3503 54.6667 40.7228 54.4058 40.201 53.884C39.6792 53.3623 39.4179 52.7343 39.417 52V40C39.417 39.2667 39.6783 38.6392 40.201 38.1174C40.7237 37.5956 41.3512 37.3343 42.0837 37.3334H63.417C64.1503 37.3334 64.7783 37.5947 65.301 38.1174C65.8237 38.64 66.0845 39.2676 66.0837 40V52C66.0837 52.7334 65.8228 53.3614 65.301 53.884C64.7792 54.4067 64.1512 54.6676 63.417 54.6667H60.717C60.3392 54.6667 60.0281 54.5387 59.7837 54.2827C59.5392 54.0267 59.417 53.7103 59.417 53.3334C59.417 52.9556 59.545 52.6392 59.801 52.384C60.057 52.1289 60.3734 52.0009 60.7503 52H63.417V40H42.0837V52H44.7503C45.1281 52 45.445 52.128 45.701 52.384C45.957 52.64 46.0845 52.9565 46.0837 53.3334C46.0837 53.7112 45.9557 54.028 45.6997 54.284C45.4437 54.54 45.1272 54.6676 44.7503 54.6667H42.0837ZM58.7503 45.3334C59.3059 45.3334 59.7783 45.1392 60.1677 44.7507C60.557 44.3623 60.7512 43.8898 60.7503 43.3334C60.7503 42.7778 60.5561 42.3058 60.1677 41.9174C59.7792 41.5289 59.3068 41.3343 58.7503 41.3334C58.1948 41.3334 57.7228 41.528 57.3343 41.9174C56.9459 42.3067 56.7512 42.7787 56.7503 43.3334C56.7503 43.8889 56.945 44.3614 57.3343 44.7507C57.7237 45.14 58.1957 45.3343 58.7503 45.3334ZM44.7503 66.6667C44.3725 66.6667 44.0561 66.5387 43.801 66.2827C43.5459 66.0267 43.4179 65.7103 43.417 65.3334V63.8667C43.417 63.0889 43.6339 62.3667 44.0677 61.7C44.5014 61.0334 45.0734 60.5334 45.7837 60.2C46.8725 59.6889 48.0059 59.3058 49.1837 59.0507C50.3614 58.7956 51.5503 58.6676 52.7503 58.6667C53.9503 58.6667 55.1392 58.7947 56.317 59.0507C57.4948 59.3067 58.6281 59.6898 59.717 60.2C60.4281 60.5334 61.0005 61.0334 61.4343 61.7C61.8681 62.3667 62.0845 63.0889 62.0837 63.8667V65.3334C62.0837 65.7111 61.9561 66.028 61.701 66.284C61.4459 66.54 61.129 66.6676 60.7503 66.6667H44.7503ZM46.0837 64H59.417V63.8667C59.417 63.6 59.3392 63.3556 59.1837 63.1334C59.0281 62.9111 58.8281 62.7445 58.5837 62.6334C57.6503 62.2112 56.6948 61.8889 55.717 61.6667C54.7392 61.4445 53.7503 61.3334 52.7503 61.3334C51.7503 61.3334 50.7614 61.4445 49.7837 61.6667C48.8059 61.8889 47.8503 62.2112 46.917 62.6334C46.6725 62.7445 46.4725 62.9111 46.317 63.1334C46.1614 63.3556 46.0837 63.6 46.0837 63.8667V64ZM52.7503 57.3334C51.4614 57.3334 50.3614 56.8778 49.4503 55.9667C48.5392 55.0556 48.0837 53.9556 48.0837 52.6667C48.0837 51.3778 48.5392 50.2778 49.4503 49.3667C50.3614 48.4556 51.4614 48 52.7503 48C54.0392 48 55.1392 48.4556 56.0503 49.3667C56.9614 50.2778 57.417 51.3778 57.417 52.6667C57.417 53.9556 56.9614 55.0556 56.0503 55.9667C55.1392 56.8778 54.0392 57.3334 52.7503 57.3334ZM52.7503 54.6667C53.3059 54.6667 53.7783 54.4725 54.1677 54.084C54.557 53.6956 54.7512 53.2232 54.7503 52.6667C54.7503 52.1112 54.5561 51.6392 54.1677 51.2507C53.7792 50.8623 53.3068 50.6676 52.7503 50.6667C52.1948 50.6667 51.7228 50.8614 51.3343 51.2507C50.9459 51.64 50.7512 52.112 50.7503 52.6667C50.7503 53.2223 50.945 53.6947 51.3343 54.084C51.7237 54.4734 52.1957 54.6676 52.7503 54.6667Z" fill="#0151FE"/>
</g>
<defs>
<filter id="filter0_d_156_647" x="0.75" y="0" width="104" height="104" filterUnits="userSpaceOnUse" color-interpolation-filters="sRGB">
<feFlood flood-opacity="0" result="BackgroundImageFix"/>
<feColorMatrix in="SourceAlpha" type="matrix" values="0 0 0 0 0 0 0 0 0 0 0 0 0 0 0 0 0 0 127 0" result="hardAlpha"/>
<feOffset/>
<feGaussianBlur stdDeviation="12"/>
<feComposite in2="hardAlpha" operator="out"/>
<feColorMatrix type="matrix" values="0 0 0 0 0.231373 0 0 0 0 0.760784 0 0 0 0 0.843137 0 0 0 0.12 0"/>
<feBlend mode="normal" in2="BackgroundImageFix" result="effect1_dropShadow_156_647"/>
<feBlend mode="normal" in="SourceGraphic" in2="effect1_dropShadow_156_647" result="shape"/>
</filter>
</defs>
</svg>
