<svg width="1440" height="586" viewBox="0 0 1440 586" fill="none" xmlns="http://www.w3.org/2000/svg">
<g clip-path="url(#clip0_742_874)">
<g filter="url(#filter0_f_742_874)">
<circle cx="1311" cy="83" r="300" fill="url(#paint0_angular_742_874)" fill-opacity="0.3"/>
</g>
<g filter="url(#filter1_f_742_874)">
<circle cx="129" cy="286" r="300" fill="url(#paint1_angular_742_874)" fill-opacity="0.3"/>
</g>
<path d="M120 464L1320 464" stroke="#0D2222" stroke-opacity="0.07"/>
<path d="M120 371.4L1320 371.4" stroke="#0D2222" stroke-opacity="0.07"/>
<path d="M120 278.8L1320 278.8" stroke="#0D2222" stroke-opacity="0.07"/>
<path d="M120 186.2L1320 186.2" stroke="#0D2222" stroke-opacity="0.07"/>
<path d="M120 93.6001L1320 93.6002" stroke="#0D2222" stroke-opacity="0.07"/>
<path d="M120 1L1320 1.00005" stroke="#0D2222" stroke-opacity="0.07"/>
<path d="M120 1L120 464" stroke="#0D2222" stroke-opacity="0.07"/>
<path d="M220 1L220 464" stroke="#0D2222" stroke-opacity="0.07"/>
<path d="M320 1L320 464" stroke="#0D2222" stroke-opacity="0.07"/>
<path d="M420 1L420 464" stroke="#0D2222" stroke-opacity="0.07"/>
<path d="M520 1L520 464" stroke="#0D2222" stroke-opacity="0.07"/>
<path d="M620 1L620 464" stroke="#0D2222" stroke-opacity="0.07"/>
<path d="M720 1L720 464" stroke="#0D2222" stroke-opacity="0.07"/>
<path d="M820 1L820 464" stroke="#0D2222" stroke-opacity="0.07"/>
<path d="M920 1L920 464" stroke="#0D2222" stroke-opacity="0.07"/>
<path d="M1020 1L1020 464" stroke="#0D2222" stroke-opacity="0.07"/>
<path d="M1120 1L1120 464" stroke="#0D2222" stroke-opacity="0.07"/>
<path d="M1220 1L1220 464" stroke="#0D2222" stroke-opacity="0.07"/>
<path d="M1320 1L1320 464" stroke="#0D2222" stroke-opacity="0.07"/>
<path d="M120 427L120 1.00001" stroke="#091B1D" stroke-opacity="0.1"/>
<path d="M1320 427L1320 1.00001" stroke="white" stroke-opacity="0.2"/>
<rect x="120" y="186" width="100" height="93" fill="#00D0FE" fill-opacity="0.13"/>
<rect x="220" width="100" height="93" fill="#00D0FE" fill-opacity="0.13"/>
<rect x="320" y="278" width="100" height="93" fill="#00D0FE" fill-opacity="0.13"/>
<rect x="1220" y="1" width="100" height="92" fill="#00D0FE" fill-opacity="0.13"/>
<rect x="1121" y="187" width="98" height="91" fill="#00D0FE" fill-opacity="0.13"/>
<rect x="821" y="2" width="98" height="91" fill="#00D0FE" fill-opacity="0.13"/>
</g>
<defs>
<filter id="filter0_f_742_874" x="660.4" y="-567.6" width="1301.2" height="1301.2" filterUnits="userSpaceOnUse" color-interpolation-filters="sRGB">
<feFlood flood-opacity="0" result="BackgroundImageFix"/>
<feBlend mode="normal" in="SourceGraphic" in2="BackgroundImageFix" result="shape"/>
<feGaussianBlur stdDeviation="175.3" result="effect1_foregroundBlur_742_874"/>
</filter>
<filter id="filter1_f_742_874" x="-521.6" y="-364.6" width="1301.2" height="1301.2" filterUnits="userSpaceOnUse" color-interpolation-filters="sRGB">
<feFlood flood-opacity="0" result="BackgroundImageFix"/>
<feBlend mode="normal" in="SourceGraphic" in2="BackgroundImageFix" result="shape"/>
<feGaussianBlur stdDeviation="175.3" result="effect1_foregroundBlur_742_874"/>
</filter>
<radialGradient id="paint0_angular_742_874" cx="0" cy="0" r="1" gradientUnits="userSpaceOnUse" gradientTransform="translate(1311 83) rotate(90) scale(300)">
<stop stop-color="#9BE386"/>
<stop offset="1" stop-color="#00D0FE"/>
</radialGradient>
<radialGradient id="paint1_angular_742_874" cx="0" cy="0" r="1" gradientUnits="userSpaceOnUse" gradientTransform="translate(129 286) rotate(90) scale(300)">
<stop stop-color="#9BE386"/>
<stop offset="1" stop-color="#00D0FE"/>
</radialGradient>
<clipPath id="clip0_742_874">
<rect width="1440" height="586" fill="white"/>
</clipPath>
</defs>
</svg>
