<svg width="20" height="21" viewBox="0 0 20 21" fill="none" xmlns="http://www.w3.org/2000/svg">
<g clip-path="url(#clip0_612_2401)">
<path d="M14.4185 5.00843C14.631 5.00846 14.8347 5.09288 14.985 5.24312C15.1352 5.39337 15.2197 5.59713 15.2197 5.80961L15.2197 12.2202C15.2215 12.3266 15.2022 12.4322 15.1627 12.5311C15.1233 12.6299 15.0646 12.7199 14.99 12.7958C14.9154 12.8716 14.8265 12.9319 14.7284 12.9731C14.6302 13.0142 14.5249 13.0354 14.4185 13.0354C14.3121 13.0354 14.2068 13.0142 14.1086 12.9731C14.0105 12.9319 13.9216 12.8716 13.847 12.7958C13.7724 12.7199 13.7137 12.6299 13.6743 12.5311C13.6348 12.4322 13.6155 12.3266 13.6173 12.2202V7.74399L6.11378 15.2475C5.96351 15.3978 5.75969 15.4822 5.54718 15.4822C5.33466 15.4822 5.13084 15.3978 4.98057 15.2475C4.8303 15.0973 4.74588 14.8935 4.74588 14.6809C4.74588 14.4684 4.8303 14.2646 4.98057 14.1143L12.4841 6.61079L8.00794 6.61078C7.79786 6.60713 7.59763 6.52112 7.45036 6.37127C7.30309 6.22141 7.22056 6.01971 7.22056 5.80961C7.22056 5.5995 7.30309 5.3978 7.45036 5.24795C7.59763 5.09809 7.79786 5.01208 8.00794 5.00843L14.4185 5.00843Z" fill="#282828"/>
</g>
<defs>
<clipPath id="clip0_612_2401">
<rect width="20" height="20" fill="white" transform="translate(0 0.109375)"/>
</clipPath>
</defs>
</svg>
