<svg width="33" height="32" viewBox="0 0 33 32" fill="none" xmlns="http://www.w3.org/2000/svg">
<path d="M30.2501 6.00002C30.247 4.96276 29.8402 3.96744 29.116 3.22485C28.3918 2.48226 27.407 2.05071 26.3701 2.02159C25.3333 1.99248 24.3258 2.36808 23.5611 3.06887C22.7963 3.76965 22.3344 4.74057 22.2731 5.77602L9.83607 8.26302C9.54529 7.65864 9.10684 7.13732 8.56126 6.74723C8.01568 6.35713 7.38057 6.11087 6.71462 6.03118C6.04868 5.9515 5.37339 6.04097 4.75118 6.29133C4.12897 6.54169 3.5799 6.94486 3.15473 7.46357C2.72957 7.98229 2.44201 8.5998 2.31865 9.25906C2.1953 9.91831 2.24011 10.598 2.44896 11.2354C2.65781 11.8727 3.02395 12.4471 3.51354 12.9055C4.00313 13.3639 4.60038 13.6915 5.25007 13.858V22.142C4.56768 22.3169 3.94371 22.6692 3.44152 23.1632C2.93933 23.6572 2.5768 24.2754 2.39076 24.9548C2.20471 25.6342 2.20177 26.3508 2.38224 27.0317C2.5627 27.7127 2.92013 28.3337 3.41825 28.8318C3.91637 29.33 4.53743 29.6874 5.21837 29.8679C5.89931 30.0483 6.61588 30.0454 7.29531 29.8593C7.97475 29.6733 8.59285 29.3108 9.08687 28.8086C9.58088 28.3064 9.93321 27.6824 10.1081 27H18.3921C18.5583 27.6502 18.8858 28.2479 19.3442 28.7379C19.8027 29.2279 20.3773 29.5945 21.0149 29.8036C21.6525 30.0127 22.3326 30.0577 22.9922 29.9344C23.6518 29.811 24.2697 29.5234 24.7887 29.098C25.3076 28.6726 25.711 28.1232 25.9614 27.5006C26.2118 26.8781 26.3012 26.2024 26.2213 25.5361C26.1414 24.8699 25.8948 24.2345 25.5042 23.6888C25.1137 23.1431 24.5919 22.7046 23.9871 22.414L26.4741 9.97702C27.4921 9.92114 28.4502 9.47814 29.1522 8.73876C29.8543 7.99938 30.247 7.01958 30.2501 6.00002ZM26.2501 4.00002C26.6456 4.00002 27.0323 4.11732 27.3612 4.33708C27.6901 4.55685 27.9465 4.8692 28.0978 5.23466C28.2492 5.60011 28.2888 6.00224 28.2116 6.3902C28.1345 6.77817 27.944 7.13453 27.6643 7.41424C27.3846 7.69394 27.0282 7.88442 26.6403 7.96159C26.2523 8.03876 25.8502 7.99916 25.4847 7.84778C25.1193 7.69641 24.8069 7.44006 24.5871 7.11116C24.3674 6.78226 24.2501 6.39559 24.2501 6.00002C24.2506 5.46975 24.4615 4.96135 24.8364 4.58639C25.2114 4.21144 25.7198 4.00055 26.2501 4.00002ZM4.25007 10C4.25007 9.60446 4.36737 9.21778 4.58714 8.88888C4.8069 8.55998 5.11926 8.30364 5.48471 8.15226C5.85016 8.00089 6.25229 7.96128 6.64025 8.03845C7.02822 8.11562 7.38458 8.3061 7.66429 8.58581C7.94399 8.86551 8.13447 9.22188 8.21165 9.60984C8.28882 9.9978 8.24921 10.3999 8.09783 10.7654C7.94646 11.1308 7.69011 11.4432 7.36121 11.663C7.03232 11.8827 6.64564 12 6.25007 12C5.7198 11.9995 5.2114 11.7886 4.83645 11.4137C4.46149 11.0387 4.2506 10.5303 4.25007 10ZM6.25007 28C5.85451 28 5.46783 27.8827 5.13893 27.663C4.81004 27.4432 4.55369 27.1308 4.40232 26.7654C4.25094 26.3999 4.21133 25.9978 4.2885 25.6098C4.36567 25.2219 4.55616 24.8655 4.83586 24.5858C5.11557 24.3061 5.47193 24.1156 5.85989 24.0385C6.24786 23.9613 6.64999 24.0009 7.01544 24.1523C7.38089 24.3036 7.69325 24.56 7.91301 24.8889C8.13278 25.2178 8.25007 25.6045 8.25007 26C8.24955 26.5303 8.03866 27.0387 7.6637 27.4137C7.28874 27.7886 6.78034 27.9995 6.25007 28ZM18.3921 25H10.1081C9.92895 24.3125 9.56967 23.6852 9.06728 23.1828C8.5649 22.6804 7.9376 22.3211 7.25007 22.142V13.858C8.06712 13.6455 8.79562 13.1791 9.33062 12.526C9.86563 11.873 10.1795 11.0669 10.2271 10.224L22.6641 7.73702C23.056 8.54324 23.7071 9.19466 24.5131 9.58702L22.0261 22.023C21.1832 22.0706 20.3771 22.3845 19.7241 22.9195C19.071 23.4545 18.6046 24.183 18.3921 25ZM22.2501 28C21.8545 28 21.4678 27.8827 21.1389 27.663C20.81 27.4432 20.5537 27.1308 20.4023 26.7654C20.2509 26.3999 20.2113 25.9978 20.2885 25.6098C20.3657 25.2219 20.5562 24.8655 20.8359 24.5858C21.1156 24.3061 21.4719 24.1156 21.8599 24.0385C22.2479 23.9613 22.65 24.0009 23.0154 24.1523C23.3809 24.3036 23.6933 24.56 23.913 24.8889C24.1328 25.2178 24.2501 25.6045 24.2501 26C24.2495 26.5303 24.0387 27.0387 23.6637 27.4137C23.2887 27.7886 22.7803 27.9995 22.2501 28Z" fill="#0151FE"/>
</svg>
