<svg width="33" height="32" viewBox="0 0 33 32" fill="none" xmlns="http://www.w3.org/2000/svg">
<path d="M9.61699 10.8667C9.75033 11 9.90588 11.0667 10.0837 11.0667C10.2614 11.0667 10.417 11 10.5503 10.8667L12.2837 9.13337C12.417 9.00004 12.4837 8.84448 12.4837 8.66671C12.4837 8.48893 12.417 8.33337 12.2837 8.20004L10.5503 6.46671C10.417 6.33337 10.2614 6.26671 10.0837 6.26671C9.90588 6.26671 9.75033 6.33337 9.61699 6.46671L7.88366 8.20004C7.75033 8.33337 7.68366 8.48893 7.68366 8.66671C7.68366 8.84448 7.75033 9.00004 7.88366 9.13337L9.61699 10.8667ZM6.08366 18.6667C5.35033 18.6667 4.72277 18.4058 4.20099 17.884C3.67921 17.3623 3.41788 16.7343 3.41699 16V4.00004C3.41699 3.26671 3.67833 2.63915 4.20099 2.11737C4.72366 1.5956 5.35121 1.33426 6.08366 1.33337H27.417C28.1503 1.33337 28.7783 1.59471 29.301 2.11737C29.8237 2.64004 30.0845 3.2676 30.0837 4.00004V16C30.0837 16.7334 29.8228 17.3614 29.301 17.884C28.7792 18.4067 28.1512 18.6676 27.417 18.6667H24.717C24.3392 18.6667 24.0281 18.5387 23.7837 18.2827C23.5392 18.0267 23.417 17.7103 23.417 17.3334C23.417 16.9556 23.545 16.6392 23.801 16.384C24.057 16.1289 24.3734 16.0009 24.7503 16H27.417V4.00004H6.08366V16H8.75033C9.1281 16 9.44499 16.128 9.70099 16.384C9.95699 16.64 10.0845 16.9565 10.0837 17.3334C10.0837 17.7112 9.95566 18.028 9.69966 18.284C9.44366 18.54 9.12721 18.6676 8.75033 18.6667H6.08366ZM22.7503 9.33337C23.3059 9.33337 23.7783 9.13915 24.1677 8.75071C24.557 8.36226 24.7512 7.88982 24.7503 7.33337C24.7503 6.77782 24.5561 6.30582 24.1677 5.91737C23.7792 5.52893 23.3068 5.33426 22.7503 5.33337C22.1948 5.33337 21.7228 5.52804 21.3343 5.91737C20.9459 6.30671 20.7512 6.77871 20.7503 7.33337C20.7503 7.88893 20.945 8.36137 21.3343 8.75071C21.7237 9.14004 22.1957 9.33426 22.7503 9.33337ZM8.75033 30.6667C8.37255 30.6667 8.0561 30.5387 7.80099 30.2827C7.54588 30.0267 7.41788 29.7103 7.41699 29.3334V27.8667C7.41699 27.0889 7.63388 26.3667 8.06766 25.7C8.50144 25.0334 9.07344 24.5334 9.78366 24.2C10.8725 23.6889 12.0059 23.3058 13.1837 23.0507C14.3614 22.7956 15.5503 22.6676 16.7503 22.6667C17.9503 22.6667 19.1392 22.7947 20.317 23.0507C21.4948 23.3067 22.6281 23.6898 23.717 24.2C24.4281 24.5334 25.0005 25.0334 25.4343 25.7C25.8681 26.3667 26.0845 27.0889 26.0837 27.8667V29.3334C26.0837 29.7111 25.9561 30.028 25.701 30.284C25.4459 30.54 25.129 30.6676 24.7503 30.6667H8.75033ZM10.0837 28H23.417V27.8667C23.417 27.6 23.3392 27.3556 23.1837 27.1334C23.0281 26.9111 22.8281 26.7445 22.5837 26.6334C21.6503 26.2112 20.6948 25.8889 19.717 25.6667C18.7392 25.4445 17.7503 25.3334 16.7503 25.3334C15.7503 25.3334 14.7614 25.4445 13.7837 25.6667C12.8059 25.8889 11.8503 26.2112 10.917 26.6334C10.6725 26.7445 10.4725 26.9111 10.317 27.1334C10.1614 27.3556 10.0837 27.6 10.0837 27.8667V28ZM16.7503 21.3334C15.4614 21.3334 14.3614 20.8778 13.4503 19.9667C12.5392 19.0556 12.0837 17.9556 12.0837 16.6667C12.0837 15.3778 12.5392 14.2778 13.4503 13.3667C14.3614 12.4556 15.4614 12 16.7503 12C18.0392 12 19.1392 12.4556 20.0503 13.3667C20.9614 14.2778 21.417 15.3778 21.417 16.6667C21.417 17.9556 20.9614 19.0556 20.0503 19.9667C19.1392 20.8778 18.0392 21.3334 16.7503 21.3334ZM16.7503 18.6667C17.3059 18.6667 17.7783 18.4725 18.1677 18.084C18.557 17.6956 18.7512 17.2232 18.7503 16.6667C18.7503 16.1112 18.5561 15.6392 18.1677 15.2507C17.7792 14.8623 17.3068 14.6676 16.7503 14.6667C16.1948 14.6667 15.7228 14.8614 15.3343 15.2507C14.9459 15.64 14.7512 16.112 14.7503 16.6667C14.7503 17.2223 14.945 17.6947 15.3343 18.084C15.7237 18.4734 16.1957 18.6676 16.7503 18.6667Z" fill="#0151FE"/>
</svg>
