<svg width="33" height="32" viewBox="0 0 33 32" fill="none" xmlns="http://www.w3.org/2000/svg">
<path d="M8.24967 5.33329H5.58301V2.66663H26.9163V5.33329H24.2497V7.99996C24.2497 10.1533 23.1617 11.8866 21.791 13.3026C20.8537 14.2706 19.7137 15.1626 18.5577 16C19.7137 16.8373 20.8537 17.7293 21.791 18.6973C23.1617 20.1133 24.2497 21.8466 24.2497 24V26.6666H26.9163V29.3333H5.58301V26.6666H8.24967V24C8.24967 21.8466 9.33767 20.1133 10.7083 18.6973C11.6457 17.7293 12.7857 16.8373 13.9417 16C12.7857 15.1626 11.6457 14.2706 10.7083 13.3026C9.33767 11.8866 8.24967 10.1533 8.24967 7.99996V5.33329ZM10.9163 5.33329V7.99996C10.9163 9.17996 11.495 10.28 12.6243 11.448C13.5937 12.4493 14.8563 13.3866 16.2497 14.3706C17.643 13.3866 18.9057 12.4493 19.875 11.448C21.0043 10.28 21.583 9.17996 21.583 7.99996V5.33329H10.9163ZM16.2497 17.6293C14.8563 18.6133 13.5937 19.5506 12.6243 20.552C11.495 21.72 10.9163 22.82 10.9163 24V26.6666H21.583V24C21.583 22.82 21.0043 21.72 19.875 20.552C18.9057 19.5506 17.643 18.6133 16.2497 17.6293Z" fill="#3DC3D6"/>
</svg>
