<svg width="33" height="32" viewBox="0 0 33 32" fill="none" xmlns="http://www.w3.org/2000/svg">
<path d="M29.6768 14.6668C29.6762 13.1683 29.2414 11.7022 28.4251 10.4457C27.6087 9.1892 26.4457 8.19618 25.0768 7.58676C24.5922 6.50123 23.8643 5.54179 22.9493 4.78274C22.0344 4.02369 20.9571 3.48539 19.8007 3.20952C18.6444 2.93365 17.4401 2.92761 16.281 3.19187C15.122 3.45612 14.0393 3.98359 13.1168 4.73343H12.9168C11.8335 4.73445 10.7624 4.9625 9.77255 5.40286C8.78274 5.84322 7.8962 6.48613 7.17009 7.29012C6.44398 8.09412 5.89442 9.04136 5.55684 10.0708C5.21926 11.1002 5.10116 12.1889 5.21015 13.2668C4.55763 14.2053 4.1211 15.2768 3.93192 16.4041C3.74275 17.5314 3.80563 18.6867 4.11604 19.7868C4.42645 20.887 4.97669 21.9047 5.72722 22.7669C6.47776 23.6291 7.40995 24.3144 8.45682 24.7734C8.97367 25.7872 9.70788 26.6744 10.6071 27.3717C11.5062 28.0691 12.5482 28.5594 13.6587 28.8077C14.7692 29.0561 15.9208 29.0563 17.0313 28.8083C18.1419 28.5604 19.1841 28.0705 20.0835 27.3734H20.6568C22.7108 27.377 24.6823 26.5653 26.1385 25.1167C27.5946 23.668 28.4164 21.7008 28.4235 19.6468C28.4235 19.4134 28.4235 19.1868 28.3835 18.9801C29.2363 17.704 29.6868 16.2015 29.6768 14.6668Z" stroke="#3DC3D6" stroke-width="1.67" stroke-linecap="round" stroke-linejoin="round"/>
<path d="M5.20996 13.2665C5.84329 16.8199 7.04996 17.8399 8.00329 18.7999C8.95663 19.7599 11.97 22.2999 12.67 23.3265M28.3833 18.9599C27.7166 15.4065 26.5433 14.3799 25.59 13.4265C24.6366 12.4732 21.6233 9.91986 20.9233 8.89319" stroke="#3DC3D6" stroke-width="1.67" stroke-linecap="round" stroke-linejoin="round"/>
<path d="M20.0834 27.3734C22.8434 25.0401 23.1301 23.4867 23.4767 22.1801C23.8234 20.8734 24.0701 18.5334 25.0634 15.8734C26.1059 13.2142 26.1059 10.2593 25.0634 7.60006M13.1167 4.7334C10.3567 7.06673 10.3901 8.88673 10.0434 10.1934C9.6634 12.3303 9.1332 14.4378 8.45672 16.5001C7.41417 19.1593 7.41417 22.1142 8.45672 24.7734" stroke="#3DC3D6" stroke-width="1.67" stroke-linecap="round" stroke-linejoin="round"/>
<path d="M26.3902 20.8267C23.2502 23.0534 21.4369 22.6667 19.0569 23.4934C17.6436 23.9667 16.7769 24.9534 12.4302 25.24C9.57689 25.4334 8.48355 24.8 8.48355 24.8M7.14355 11.5467C10.2836 9.32669 12.0969 9.70669 14.4769 8.88003C15.8902 8.40669 16.7569 7.42003 21.1036 7.13336C23.9569 6.94669 25.0502 7.57336 25.0502 7.57336" stroke="#3DC3D6" stroke-width="1.67" stroke-linecap="round" stroke-linejoin="round"/>
<path d="M18.8695 7.41337C17.8229 6.3067 15.5029 4.7467 13.1162 4.7467M14.6162 24.9667C16.0533 26.4534 18.0159 27.3175 20.0829 27.3734" stroke="#3DC3D6" stroke-width="1.67" stroke-linecap="round" stroke-linejoin="round"/>
</svg>
